<svg width="83" height="47" viewBox="0 0 83 47" fill="none" xmlns="http://www.w3.org/2000/svg">
<path d="M12.798 38.616H12.299L12.298 38.1171L12.2603 20.114L12.2603 20.1135L12.2053 2.62135L7.85757 2.57251L7.85569 2.57249L3.5 2.54001V24.5181V46.5H22.5017C30.3975 46.5 35.2697 46.4909 38.1679 46.457C39.6186 46.44 40.5669 46.4168 41.1504 46.386C41.2373 46.3814 41.3148 46.3767 41.3836 46.3719C41.3115 46.1475 41.2062 45.8371 41.058 45.4131C40.7036 44.399 40.1112 42.7567 39.1595 40.1364C39.1595 40.1363 39.1594 40.1362 39.1594 40.136L38.6018 38.616H25.8745H12.798Z" fill="white" stroke="#171717"/>
<path d="M23.0374 31.7397C23.113 31.5479 23.2054 31.3155 23.3131 31.0462C23.6442 30.2184 24.1178 29.0476 24.6871 27.6476C25.8255 24.8477 27.3456 21.1339 28.8717 17.4197C30.3978 13.7055 31.9297 9.99159 33.0917 7.19172C33.6728 5.79167 34.1611 4.62082 34.5099 3.79294C34.6843 3.3788 34.8234 3.0517 34.9215 2.82506C34.9511 2.75673 34.9766 2.69827 34.9981 2.64977C35.0067 2.64835 35.0159 2.6469 35.0257 2.64542C35.1855 2.62138 35.437 2.60015 35.8108 2.58335C36.5542 2.54992 37.7214 2.53626 39.4743 2.53626H43.7932L48.1123 13.0492L48.1126 13.0502L52.5402 23.8913L52.6672 24.2023H53.0031H61.0864H69.1509H69.2595L69.3582 24.1572L70.4294 23.669C70.4299 23.6688 70.4304 23.6685 70.4309 23.6683C71.913 23.0036 73.2022 21.7609 73.9495 20.284C73.9495 20.2839 73.9495 20.2838 73.9496 20.2837L73.5034 20.058C73.9933 19.0971 74.0499 18.807 74.0499 17.1753C74.0499 15.4529 74.0122 15.3078 73.4092 14.22L23.0374 31.7397ZM23.0374 31.7397C23.117 31.7417 23.2033 31.7436 23.2962 31.7455C23.9099 31.7582 24.7992 31.7701 25.8984 31.7803C28.0964 31.8007 31.1284 31.8143 34.4623 31.8143H46.5967H46.9327L47.0597 32.1254L47.8498 34.0623C47.85 34.0628 47.8502 34.0633 47.8504 34.0638C48.3013 35.1483 48.9156 36.5263 49.2444 37.1593C51.8197 42.0617 57.1339 45.6149 62.9914 46.304L62.9948 46.3044C63.9729 46.4264 68.2836 46.5 73.8238 46.5H82.4999V42.5761V38.6314L73.2557 38.5798L63.4954 38.5254L63.4058 38.5249L63.322 38.4933L62.0256 38.0052C62.025 38.0049 62.0244 38.0047 62.0238 38.0045C60.2821 37.3639 58.6948 36.3034 57.7044 35.0978M23.0374 31.7397L52.7217 2.507M52.7217 2.507C52.7407 2.55842 52.7624 2.61665 52.7869 2.68137C52.8779 2.92235 53.0036 3.24697 53.1551 3.63237C53.4581 4.40284 53.8623 5.41154 54.295 6.47042L54.2966 6.47456L55.7173 10.0422L62.1832 10.0939L68.9665 10.1483L69.0729 10.1491L69.1698 10.1933L70.239 10.6807C70.2398 10.681 70.2406 10.6814 70.2414 10.6817L52.7217 2.507ZM52.7217 2.507L60.874 2.59063L60.8747 2.59063C69.0815 2.66358 69.758 2.68598 70.8997 3.00711L70.9019 3.00771C74.1056 3.89355 76.2116 5.10355 78.2537 7.17385L78.2543 7.17442C82.6108 11.5768 83.6809 17.8398 81.0427 23.339C80.1255 25.2096 79.4256 26.1928 77.9094 27.6166L77.9066 27.6193C75.7929 29.6356 73.2612 30.9347 70.2224 31.5336L70.217 31.5347L70.2171 31.5347C69.1493 31.7573 67.629 31.8143 62.7445 31.8143C61.0567 31.8143 59.5232 31.8233 58.4107 31.8392C57.855 31.8472 57.4015 31.8569 57.0855 31.8681C56.9286 31.8737 56.7999 31.8799 56.7078 31.8868C56.6638 31.8902 56.6168 31.8945 56.5759 31.9008C56.5589 31.9035 56.5212 31.9096 56.4792 31.9228C56.4619 31.9282 56.4118 31.9443 56.3563 31.9793L56.3558 31.9796C56.329 31.9965 56.1208 32.1275 56.1208 32.4049C56.1208 32.534 56.1619 32.6555 56.188 32.726C56.22 32.8123 56.2627 32.9063 56.3102 33.0016C56.4057 33.1933 56.5361 33.421 56.6833 33.6586C56.9772 34.133 57.3573 34.6778 57.7044 35.0978M57.7044 35.0978C57.7047 35.098 57.7049 35.0983 57.7051 35.0986L58.0904 34.7801L57.7041 35.0974C57.7042 35.0975 57.7043 35.0976 57.7044 35.0978ZM62.9329 46.8006L62.933 46.8003L62.9329 46.8006ZM57.115 32.3461C57.115 32.346 57.1152 32.3467 57.1156 32.3482L57.115 32.3461ZM34.8891 2.67299C34.8767 2.67704 34.879 2.6776 34.8906 2.6725C34.8901 2.67267 34.8896 2.67283 34.8891 2.67299ZM34.9232 23.367C36.7111 19.0206 38.3673 14.9642 38.6709 14.2157C38.7785 13.943 38.8883 13.697 38.9799 13.5183C39.0242 13.4319 39.0718 13.346 39.1185 13.2784C39.1379 13.2503 39.1784 13.1935 39.2365 13.1427C39.2617 13.1206 39.3316 13.0622 39.4388 13.031C39.5724 12.9922 39.7654 13.0005 39.9208 13.1402C39.9551 13.1707 39.9756 13.197 39.9808 13.2034C39.9968 13.2235 40.0087 13.2412 40.0153 13.2515C40.029 13.2727 40.0405 13.2932 40.0482 13.3075C40.0645 13.3376 40.0824 13.3739 40.1005 13.4117C40.1375 13.4889 40.1864 13.5963 40.2448 13.7277C40.3621 13.9917 40.5241 14.3668 40.7187 14.8242C41.1081 15.7393 41.6314 16.9914 42.1968 18.3604C42.772 19.7217 43.2909 20.9788 43.6662 21.9055C43.8538 22.3688 44.0061 22.7508 44.1118 23.0223C44.1645 23.1577 44.2065 23.268 44.2357 23.348C44.2502 23.3875 44.2629 23.4235 44.2726 23.453C44.2772 23.4672 44.2829 23.4851 44.2879 23.5036C44.2904 23.5127 44.294 23.5269 44.2974 23.5437C44.2993 23.5529 44.3081 23.5947 44.3081 23.6479C44.3081 23.9329 44.0897 24.0652 44.0642 24.0807L44.063 24.0814C44.0065 24.1159 43.9544 24.1327 43.9332 24.1393C43.8833 24.1546 43.8329 24.1635 43.7981 24.1689C43.7216 24.1809 43.622 24.1908 43.5103 24.1996C43.283 24.2174 42.9614 24.2336 42.5726 24.2473C41.793 24.2747 40.7224 24.2929 39.5497 24.2929C37.8845 24.2929 36.8103 24.2794 36.1601 24.2422C35.8425 24.224 35.5921 24.1987 35.4177 24.1565C35.3417 24.1381 35.2105 24.1014 35.0976 24.0129C35.034 23.963 34.9497 23.8759 34.9068 23.7414C34.8617 23.5995 34.8821 23.4666 34.9232 23.367ZM39.9414 13.8465C39.9413 13.8467 39.9412 13.8469 39.941 13.8471L39.9414 13.8465Z" fill="white" stroke="#171717"/>
<path d="M0 22.5181V45H19.5017C35.2915 45 39.0035 44.9637 39.0035 44.7643C39.0035 44.5467 38.5324 43.2051 36.6293 37.9654L35.951 36.116H22.8745H9.79797L9.76029 18.1124L9.70376 0.126916L4.8613 0.0725244L0 0.0362633V22.5181Z" fill="#171717"/>
<path d="M31.6319 0.253825C31.4435 0.489522 19.3279 29.9698 19.3279 30.2055C19.3279 30.2599 24.7921 30.3143 31.4623 30.3143H43.5967L44.3881 32.2542C44.8403 33.3421 45.4621 34.7381 45.8012 35.3908C48.458 40.4492 53.9223 44.0935 59.9329 44.8006C60.9504 44.9275 65.303 45 70.8238 45H79.9999V40.5761V36.1342L70.2585 36.0798L60.4982 36.0254L59.1981 35.5359C57.5211 34.9194 56.0137 33.9041 55.0905 32.78C54.431 31.9823 53.6208 30.6769 53.6208 30.4049C53.6208 30.3505 56.3718 30.3143 59.7445 30.3143C64.6058 30.3143 66.1886 30.2599 67.3191 30.0242C70.4469 29.4077 73.066 28.0661 75.2517 25.9811C76.8156 24.5125 77.5504 23.479 78.4926 21.5572C81.2247 15.8642 80.113 9.37349 75.6097 4.82272C73.4994 2.68332 71.3137 1.43231 68.0351 0.525783C66.8104 0.181302 66.0378 0.163173 57.8791 0.0906509L49.0421 -1.83089e-06L49.1552 0.39887C49.2117 0.616436 49.9654 2.53827 50.8321 4.65955L52.3772 8.53948L59.1792 8.59387L65.9625 8.64827L67.0365 9.13779C68.4685 9.77236 69.6367 10.8602 70.4092 12.22C71.0122 13.3078 71.0499 13.4529 71.0499 15.1753C71.0499 16.807 70.9933 17.0971 70.5034 18.058C69.8063 19.4359 68.6004 20.5963 67.2249 21.2127L66.1509 21.7023H58.0864H50.0031L45.5751 10.8602L41.1284 0.0362587H36.4743C32.9697 0.0362587 31.7638 0.0906498 31.6319 0.253825ZM38.7354 16.5532C39.8848 19.2728 40.808 21.5753 40.808 21.6479C40.808 21.7204 38.8861 21.7929 36.5497 21.7929C33.2146 21.7929 32.3102 21.7385 32.3856 21.5572C34.1756 17.2059 35.8337 13.1446 36.1352 12.4013C36.3424 11.8755 36.5497 11.4766 36.5874 11.5129C36.6439 11.5492 37.6049 13.8155 38.7354 16.5532Z" fill="#171717"/>
</svg>
